<svg width="23" height="23" viewBox="0 0 23 23" fill="none" xmlns="http://www.w3.org/2000/svg">
<path d="M14.436 2.375C15.9194 2.77396 17.2719 3.55567 18.3581 4.64184C19.4442 5.72801 20.226 7.08051 20.6249 8.56388" stroke="white" stroke-width="1.5" stroke-linecap="round" stroke-linejoin="round"/>
<path d="M13.5305 5.75684C14.4203 5.99622 15.2317 6.46518 15.8832 7.11675C16.5348 7.76832 17.0038 8.57964 17.2431 9.46946" stroke="white" stroke-width="1.5" stroke-linecap="round" stroke-linejoin="round"/>
<path d="M7.115 11.6517C8.02238 13.5074 9.5263 15.0049 11.3859 15.9042C11.522 15.9687 11.6727 15.9966 11.8229 15.9851C11.9731 15.9736 12.1178 15.9231 12.2425 15.8386L14.9812 14.0134C15.1022 13.9326 15.2414 13.8833 15.3862 13.8698C15.5311 13.8564 15.677 13.8792 15.8107 13.9364L20.9339 16.1326C21.1079 16.2065 21.2532 16.335 21.3479 16.4986C21.4426 16.6623 21.4815 16.8523 21.4589 17.04C21.2967 18.307 20.6784 19.4714 19.7196 20.3153C18.7608 21.1593 17.5273 21.6249 16.25 21.625C12.3049 21.625 8.52139 20.0578 5.73179 17.2682C2.94218 14.4786 1.375 10.6951 1.375 6.74998C1.37512 5.47277 1.84074 4.23939 2.68471 3.28076C3.52867 2.32212 4.6931 1.70395 5.96 1.54198C6.14771 1.51934 6.33769 1.5583 6.50134 1.65299C6.66499 1.74768 6.79345 1.89297 6.86738 2.06698L9.06537 7.19448C9.1219 7.32697 9.14485 7.47136 9.13218 7.61484C9.11951 7.75832 9.07162 7.89645 8.99275 8.01698L7.17275 10.7977C7.09015 10.923 7.04141 11.0674 7.03129 11.2171C7.02117 11.3668 7.05001 11.5165 7.115 11.6517V11.6517Z" stroke="white" stroke-width="1.5" stroke-linecap="round" stroke-linejoin="round"/>
</svg>
